<svg id="Capa_1" enable-background="new 0 0 511.991 511.991" height="512" viewBox="0 0 511.991 511.991" width="512" xmlns="http://www.w3.org/2000/svg"><g><g><path d="m461.07 237.789-33.895-42.895s3.411-20.084 5.115-28.442c-39.056-62.44-108.42-103.981-187.498-103.981-55.772 0-106.712 20.668-145.6 54.75l7.228 8.897-36.266 56.777-26.901 84.763s30.264 105.082 32.786 106.231 50.203 79.065 50.203 79.065l21.518 29.14c29.293 14.338 62.219 22.398 97.032 22.398 74.578 0 140.523-36.943 180.548-93.522l-7.705-9.106 17.808-39.884 19.935-11.235c6.772-21.214 10.425-43.803 10.425-67.263-.001-15.672-1.631-30.944-4.733-45.693z" fill="#b3e5ee"/><g><g><path d="m461.07 237.789h-105.04-39.88c-7.36 0-14.06-2.88-19.02-7.61-4.96-4.72-8.18-11.27-8.54-18.62-.13-2.5-2.19-4.46-4.69-4.46h-32.68c-5.45 0-10.39-2.21-13.97-5.79-3.57-3.57-5.78-8.51-5.78-13.96 0-10.91 8.84-19.75 19.75-19.75h79.68 102.12c13.12 21.27 22.74 44.94 28.05 70.19z" fill="#a6d786"/></g><circle cx="422.115" cy="176.794" fill="#f8f7f8" r="50.676"/><g id="XMLID_208_"><g><path d="m488.21 176.789c0 29.33-19.11 54.18-45.55 62.82l-12.92 16.28c-3.89 4.91-11.35 4.91-15.25 0l-12.92-16.28c-27.13-8.86-46.54-34.8-45.5-65.13 1.16-34.18 28.75-62.13 62.91-63.71 37.93-1.75 69.23 28.48 69.23 66.02zm-35.79 0c0-16.73-13.57-30.3-30.3-30.3-16.74 0-30.31 13.57-30.31 30.3 0 16.74 13.57 30.31 30.31 30.31 16.73 0 30.3-13.57 30.3-30.31z" fill="#e5827f"/></g></g><path d="m81.599 278.645c0-105.835 74.398-194.279 173.743-215.927-3.498-.165-7.016-.251-10.555-.251-69.855 0-132.139 32.399-172.638 83.002l6.141 13.852-19.974 19.28-10.767 5.068c-7.05 13.903-12.666 28.638-16.67 44.04l7.104 6.793-5.357 35.179-8.797 8.968c-.035 1.612-.052 3.208-.052 4.828 0 122.06 98.95 221.01 221.01 221.01 16.251 0 32.091-1.757 47.343-5.086-117.193-5.471-210.531-102.21-210.531-220.756z" fill="#86d7e5"/><g id="XMLID_220_"><g><path d="m156.2 68.749c0 27.18-17.71 50.21-42.22 58.22l-11.97 15.09c-3.61 4.55-10.52 4.55-14.13 0l-11.97-15.09c-25.15-8.22-43.14-32.25-42.18-60.36 1.08-31.67 26.65-57.58 58.31-59.04 35.15-1.62 64.16 26.39 64.16 61.18zm-33.17 0c0-15.51-12.57-28.08-28.08-28.08s-28.09 12.57-28.09 28.08 12.58 28.09 28.09 28.09 28.08-12.58 28.08-28.09z" fill="#e5827f"/></g></g><g id="XMLID_211_"><g><path d="m326.06 350.749 129.317-.005c-6.93 21.73-17.137 41.995-30.037 60.225h-66.54c-5.66 0-10.78-2.29-14.49-6s-6-8.83-6-14.49c0-2.25-1.82-4.07-4.07-4.07h-8.18c-4.93 0-9.38-2-12.61-5.22-3.22-3.23-5.22-7.69-5.22-12.61 0-9.85 7.98-17.83 17.83-17.83z" fill="#a6d786"/></g></g></g><circle cx="147.222" cy="345.679" fill="#f8f7f8" r="41.535"/><path d="m245.34 404.609c-3.27-3.28-7.8-5.31-12.8-5.31h-16.46-126.298l9.876 17.547 48.25 47.861 26.531-.219c13.78 0 24.95-11.17 24.95-24.96 0-2.22 1.81-4.02 4.03-4.02h29.12c10 0 18.1-8.11 18.1-18.1.001-4.999-2.029-9.529-5.299-12.799z" fill="#a6d786"/><g id="XMLID_210_"><g><path d="m205.91 343.339c0 26.04-16.97 48.11-40.45 55.78l-11.47 14.45c-3.46 4.37-10.08 4.37-13.54 0l-11.47-14.45c-24.09-7.87-41.33-30.9-40.41-57.83 1.03-30.35 25.53-55.17 55.87-56.57 33.68-1.56 61.47 25.28 61.47 58.62zm-31.78 0c0-14.86-12.05-26.91-26.91-26.91s-26.91 12.05-26.91 26.91 12.05 26.91 26.91 26.91 26.91-12.05 26.91-26.91z" fill="#e5827f"/></g></g><path d="m181.439 463.487c-25.505-16.753-47.34-38.633-64.023-64.188h-60.886c15.97 25.92 37.16 48.29 62.09 65.65l55.82-.46c2.431 0 4.778-.354 6.999-1.002z" fill="#94cf6f"/><path d="m89.5 227.709h-30.859v38.844c.621-.982 1.187-2.008 1.679-3.084l.88-1.93h28.3c4.67 0 8.91-1.89 11.97-4.95s4.95-7.3 4.95-11.97c0-9.34-7.57-16.91-16.92-16.91z" fill="#a6d786"/><path d="m60.32 263.469.88-1.93h21.07c.885-11.548 2.655-22.847 5.247-33.83h-56.637c-4.25 16.32-6.67 33.38-7.05 50.94h12.86c10.17 0 19.4-5.93 23.63-15.18z" fill="#94cf6f"/><path d="m158.71 151.059c-3.46-3.45-8.24-5.59-13.51-5.59h-12.47-50.2v38.2h62.67c10.55 0 19.1-8.55 19.1-19.1 0-5.28-2.14-10.05-5.59-13.51z" fill="#a6d786"/><path d="m47.55 183.669h.98 54.484c6.462-13.552 14.259-26.343 23.229-38.2h-54.093c-9.44 11.8-17.7 24.6-24.6 38.2z" fill="#94cf6f"/></g><g><path d="m188.153 77.581c18.394-5.048 37.449-7.607 56.637-7.607 41.89 0 82.454 12.138 117.306 35.102 1.271.838 2.703 1.238 4.12 1.238 2.438 0 4.828-1.187 6.27-3.375 2.279-3.459 1.322-8.11-2.136-10.389-37.31-24.583-80.728-37.577-125.56-37.577-20.528 0-40.92 2.74-60.607 8.143-3.994 1.096-6.344 5.223-5.247 9.217 1.096 3.994 5.213 6.345 9.217 5.248z"/><path d="m464.145 255.406c-4.125.381-7.16 4.034-6.778 8.158.618 6.695.932 13.396.932 19.918 0 20.739-2.984 40.792-8.525 59.766h-51.991c-4.143 0-7.5 3.358-7.5 7.5s3.357 7.5 7.5 7.5h46.995c-6.031 16.079-13.943 31.243-23.475 45.222h-62.501c-7.164 0-12.992-5.829-12.992-12.993 0-6.38-5.19-11.571-11.571-11.571h-8.178c-5.695 0-10.329-4.634-10.329-10.329s4.634-10.329 10.329-10.329h39.76c4.143 0 7.5-3.358 7.5-7.5s-3.357-7.5-7.5-7.5h-39.76c-13.967 0-25.329 11.363-25.329 25.329s11.362 25.329 25.329 25.329h4.958c1.695 13.824 13.509 24.564 27.783 24.564h51.282c-39.186 47.895-98.728 78.521-165.293 78.521-36.175 0-70.27-9.055-100.158-24.999h29.803c16.725 0 30.535-12.715 32.273-28.986h25.834c14.116 0 25.601-11.485 25.601-25.602s-11.484-25.602-25.601-25.602h-16.464c-4.143 0-7.5 3.358-7.5 7.5s3.357 7.5 7.5 7.5h16.464c5.845 0 10.601 4.756 10.601 10.602s-4.756 10.602-10.601 10.602h-29.122c-6.356 0-11.527 5.171-11.527 11.527 0 9.626-7.832 17.458-17.458 17.458h-53.922c-19.283-13.851-36.177-30.827-49.924-50.189h7.847c4.143 0 7.5-3.358 7.5-7.5s-3.357-7.5-7.5-7.5h-17.568c-18.362-31.058-29.079-67.14-29.554-105.649h5.37c12.147 0 23.33-6.635 29.206-17.116h23.613c13.462 0 24.414-10.952 24.414-24.414s-10.952-24.414-24.414-24.414h-48.696c3.079-9.936 6.894-19.638 11.417-29.045h92.98c14.665 0 26.597-11.932 26.597-26.597 0-14.666-11.932-26.598-26.597-26.598h-12.476c-4.143 0-7.5 3.358-7.5 7.5s3.357 7.5 7.5 7.5h12.476c6.395 0 11.597 5.203 11.597 11.598s-5.202 11.597-11.597 11.597h-85.021c2.675-4.587 5.528-9.09 8.559-13.498 2.347-3.413 1.483-8.083-1.93-10.43-3.415-2.347-8.083-1.482-10.43 1.931-26.235 38.153-40.103 82.869-40.103 129.313 0 61.037 23.77 118.42 66.929 161.58 43.16 43.16 100.543 66.929 161.58 66.929s118.42-23.769 161.58-66.929c43.159-43.16 66.929-100.543 66.929-161.58 0-6.98-.335-14.146-.996-21.298-.381-4.122-4.037-7.161-8.157-6.776zm-374.64-20.196c5.191 0 9.414 4.223 9.414 9.414s-4.223 9.414-9.414 9.414h-28.308c-2.937 0-5.603 1.713-6.822 4.384l-.88 1.928c-2.997 6.563-9.595 10.805-16.81 10.805h-5.053c.693-12.179 2.414-24.194 5.128-35.943h52.745z"/><path d="m484.661 138.008c-2.186-3.519-6.812-4.597-10.328-2.412-3.519 2.186-4.599 6.81-2.412 10.329 5.75 9.253 8.789 19.927 8.789 30.868 0 25.417-16.227 47.797-40.379 55.69-1.397.457-2.631 1.315-3.545 2.467l-12.917 16.278c-.584.736-1.348.846-1.751.846s-1.168-.11-1.752-.846l-12.917-16.278c-.914-1.152-2.147-2.01-3.545-2.467-24.639-8.053-41.229-31.798-40.343-57.745 1.031-30.27 25.527-55.076 55.768-56.473 11.294-.521 22.372 2.167 32.069 7.775 3.587 2.073 8.174.848 10.247-2.738 2.074-3.585.848-8.173-2.737-10.247-12.189-7.047-26.111-10.426-40.271-9.774-37.994 1.755-68.771 32.918-70.068 70.946-1.084 31.806 18.753 60.982 48.49 71.76l11.557 14.564c3.29 4.145 8.211 6.522 13.503 6.521 5.291 0 10.212-2.377 13.5-6.522l11.556-14.562c29.128-10.525 48.535-38.045 48.535-69.197 0-13.739-3.821-27.151-11.049-38.783z"/><path d="m422.118 138.989c-20.845 0-37.804 16.958-37.804 37.803s16.959 37.803 37.804 37.803 37.803-16.958 37.803-37.803-16.958-37.803-37.803-37.803zm0 60.607c-12.574 0-22.804-10.229-22.804-22.803s10.229-22.803 22.804-22.803c12.573 0 22.803 10.229 22.803 22.803s-10.23 22.803-22.803 22.803z"/><path d="m160.302 278.46c-5.34-1.072-10.794-1.488-16.21-1.238-34.173 1.579-61.854 29.607-63.02 63.81-.972 28.527 16.765 54.699 43.387 64.458l10.115 12.746c3.081 3.883 7.69 6.11 12.646 6.11 4.957 0 9.566-2.227 12.647-6.109l10.113-12.745c26.071-9.527 43.427-34.217 43.427-62.153 0-18.251-7.658-35.876-21.012-48.355-3.028-2.829-7.773-2.667-10.601.358-2.828 3.026-2.668 7.772.358 10.601 10.481 9.795 16.254 23.077 16.254 37.396 0 22.205-14.176 41.757-35.275 48.653-1.397.457-2.631 1.315-3.545 2.467l-11.47 14.455c-.457.573-1.337.576-1.794 0l-11.471-14.454c-.914-1.152-2.147-2.01-3.545-2.467-21.524-7.035-36.018-27.78-35.244-50.448.9-26.445 22.301-48.116 48.719-49.336 4.198-.194 8.425.13 12.567.961 4.062.811 8.015-1.817 8.829-5.878s-1.813-8.016-5.875-8.832z"/><path d="m112.813 343.338c0 18.973 15.436 34.408 34.408 34.408s34.408-15.436 34.408-34.408-15.436-34.408-34.408-34.408-34.408 15.435-34.408 34.408zm53.817 0c0 10.702-8.706 19.408-19.408 19.408s-19.408-8.707-19.408-19.408 8.706-19.408 19.408-19.408 19.408 8.706 19.408 19.408z"/><path d="m71.389 133.343 10.613 13.375c3.153 3.973 7.87 6.252 12.943 6.252 5.072 0 9.789-2.279 12.942-6.252l10.612-13.374c27.13-9.873 45.196-35.542 45.196-64.592 0-18.967-7.557-36.627-21.278-49.73-13.712-13.095-31.75-19.823-50.722-18.946-35.496 1.64-64.249 30.754-65.461 66.281-1.011 29.662 17.454 56.874 45.155 66.986zm-30.163-66.475c.946-27.769 23.419-50.525 51.16-51.807.863-.04 1.721-.06 2.578-.06 13.906 0 26.996 5.227 37.096 14.871 10.729 10.245 16.637 24.053 16.637 38.881 0 23.316-14.887 43.848-37.043 51.089-1.397.457-2.631 1.315-3.545 2.467l-11.971 15.085c-.378.477-.857.576-1.192.576-.336 0-.815-.1-1.193-.576l-11.971-15.085c-.914-1.152-2.147-2.01-3.545-2.467-22.603-7.387-37.822-29.171-37.011-52.974z"/><path d="m94.945 104.336c19.621 0 35.584-15.963 35.584-35.584s-15.963-35.583-35.584-35.583c-19.62 0-35.583 15.963-35.583 35.583 0 19.622 15.963 35.584 35.583 35.584zm0-56.167c11.35 0 20.584 9.234 20.584 20.583 0 11.35-9.234 20.584-20.584 20.584s-20.583-9.234-20.583-20.584c0-11.349 9.233-20.583 20.583-20.583z"/><path d="m251.219 175.099h79.685c4.143 0 7.5-3.358 7.5-7.5s-3.357-7.5-7.5-7.5h-79.685c-15.024 0-27.248 12.224-27.248 27.249s12.224 27.249 27.248 27.249h30.11c2.184 17.412 16.994 30.691 34.82 30.691h39.876c4.143 0 7.5-3.358 7.5-7.5s-3.357-7.5-7.5-7.5h-39.875c-10.722 0-19.538-8.389-20.071-19.097-.322-6.501-5.674-11.594-12.184-11.594h-32.676c-6.754 0-12.248-5.495-12.248-12.249s5.495-12.249 12.248-12.249z"/></g></g></svg>